<svg width="940" height="1080" viewBox="0 0 940 1080" fill="none" xmlns="http://www.w3.org/2000/svg">
<path d="M931.9 273.397L751.3 169.197L650.6 227.297V111.097L470 6.79688L289.4 111.097V227.197L188.7 169.097L8.09998 273.397V481.997L108.8 540.097L8.19998 598.097V806.497L188.8 910.797L289.3 852.697V968.797L470 1073.2L649.5 969.597L650.4 969.097V852.897L751 910.997L931.6 806.897V597.997L831 539.897L931.7 481.797V273.397H931.9ZM851.9 435.597L751.4 493.697L650.7 435.597V642.297L652.2 643.197L751.2 585.997L851.7 644.097V760.197L751 818.297L650.5 760.197V644.097L570.5 690.297L549.9 702.097L469.9 748.197V748.297L570.4 806.397V922.497L569.5 922.997L469.9 980.497L369.2 922.397V806.397L469.9 748.297L389.9 702.097L369.3 690.097L289.3 643.897V759.997L188.8 818.097L88.5 760.197V644.097L189 585.997L289.1 643.797L289.6 643.497V435.597L189 493.697L88.3 435.597V319.497L188.8 261.397L289.5 319.497V435.597L369.5 389.397L390.1 377.397L470.1 331.297L369.4 273.197V157.197L470 99.0969L570.5 157.197V273.297L470 331.397V331.497L550 377.597L570.6 389.597L650.7 435.797V319.697L751.2 261.597L851.7 319.697V435.697H851.9V435.597Z" fill="white"/>
<path d="M652.2 643.3L650.7 644.2V642.5L652.2 643.3Z" fill="white"/>
<path d="M289.5 643.5V644.2L289.1 643.9L289.5 643.5Z" fill="white"/>
<path d="M469.4 539.195V540.895L470.8 539.995L469.4 539.195Z" fill="white"/>
<path d="M537.2 501.198V578.798L470 617.598L402.8 578.798V501.198L470 462.398L537.2 501.198Z" fill="white"/>
</svg>
